<svg width="181" height="58" viewBox="0 0 181 58" fill="none" xmlns="http://www.w3.org/2000/svg">
<rect y="0.443726" width="39.8945" height="51.5848" rx="4" fill="#94627f" fill-opacity=".81"/>
<path d="M8.4413 40.4437C8.0893 40.4437 7.9133 40.2517 7.9133 39.8677V9.57973C7.9133 9.19572 8.0893 9.00372 8.4413 9.00372H18.1373C23.0973 9.00372 26.7933 10.1557 29.2253 12.4597C31.6573 14.7637 32.8733 18.2197 32.8733 22.8277V25.7077C32.8733 30.6037 31.6573 34.2837 29.2253 36.7477C26.8253 39.2117 23.1293 40.4437 18.1373 40.4437H8.4413ZM13.6733 35.4997H17.7533C20.9853 35.4997 23.3533 34.6997 24.8573 33.0997C26.3613 31.4677 27.1133 29.0197 27.1133 25.7557V22.7797C27.1133 19.8037 26.3613 17.5957 24.8573 16.1557C23.3533 14.6837 20.9853 13.9477 17.7533 13.9477H13.6733V35.4997Z" fill="#f0f4f8"/>
<path d="M29.2253 12.4597L28.8814 12.8227L28.8814 12.8227L29.2253 12.4597ZM29.2253 36.7477L28.8694 36.3965L28.8671 36.3989L29.2253 36.7477ZM13.6733 35.4997H13.1733V35.9997H13.6733V35.4997ZM24.8573 33.0997L25.2216 33.4422L25.225 33.4386L24.8573 33.0997ZM24.8573 16.1557L24.5075 16.5131L24.5115 16.5169L24.8573 16.1557ZM13.6733 13.9477V13.4477H13.1733V13.9477H13.6733ZM8.4413 39.9437C8.39743 39.9437 8.38052 39.9376 8.38117 39.9378C8.38465 39.9391 8.39934 39.946 8.41387 39.9619C8.42755 39.9768 8.42809 39.9854 8.42447 39.9736C8.42029 39.9599 8.4133 39.9271 8.4133 39.8677H7.4133C7.4133 40.1265 7.47169 40.4139 7.67672 40.6376C7.8893 40.8695 8.17649 40.9437 8.4413 40.9437V39.9437ZM8.4133 39.8677V9.57973H7.4133V39.8677H8.4133ZM8.4133 9.57973C8.4133 9.52033 8.42029 9.48754 8.42447 9.47383C8.42809 9.46201 8.42755 9.47067 8.41388 9.48559C8.39934 9.50144 8.38465 9.50835 8.38117 9.50962C8.38052 9.50986 8.39743 9.50372 8.4413 9.50372V8.50372C8.17649 8.50372 7.8893 8.57795 7.67672 8.80986C7.47169 9.03353 7.4133 9.32091 7.4133 9.57973H8.4133ZM8.4413 9.50372H18.1373V8.50372H8.4413V9.50372ZM18.1373 9.50372C23.0299 9.50372 26.5785 10.641 28.8814 12.8227L29.5692 12.0967C27.0081 9.67045 23.1647 8.50372 18.1373 8.50372V9.50372ZM28.8814 12.8227C31.1808 15.0011 32.3733 18.3039 32.3733 22.8277H33.3733C33.3733 18.1355 32.1338 14.5264 29.5692 12.0967L28.8814 12.8227ZM32.3733 22.8277V25.7077H33.3733V22.8277H32.3733ZM32.3733 25.7077C32.3733 30.5272 31.1766 34.059 28.8694 36.3965L29.5812 37.099C32.138 34.5085 33.3733 30.6803 33.3733 25.7077H32.3733ZM28.8671 36.3989C26.5968 38.7298 23.0556 39.9437 18.1373 39.9437V40.9437C23.203 40.9437 27.0538 39.6937 29.5835 37.0966L28.8671 36.3989ZM18.1373 39.9437H8.4413V40.9437H18.1373V39.9437ZM13.6733 35.9997H17.7533V34.9997H13.6733V35.9997ZM17.7533 35.9997C21.0578 35.9997 23.5861 35.1821 25.2216 33.4422L24.493 32.7573C23.1205 34.2173 20.9128 34.9997 17.7533 34.9997V35.9997ZM25.225 33.4386C26.8466 31.6789 27.6133 29.0871 27.6133 25.7557H26.6133C26.6133 28.9523 25.876 31.2565 24.4896 32.7609L25.225 33.4386ZM27.6133 25.7557V22.7797H26.6133V25.7557H27.6133ZM27.6133 22.7797C27.6133 19.7267 26.8415 17.3633 25.2031 15.7946L24.5115 16.5169C25.8811 17.8282 26.6133 19.8808 26.6133 22.7797H27.6133ZM25.207 15.7984C23.5701 14.1963 21.0477 13.4477 17.7533 13.4477V14.4477C20.9229 14.4477 23.1365 15.1712 24.5076 16.5131L25.207 15.7984ZM17.7533 13.4477H13.6733V14.4477H17.7533V13.4477ZM13.1733 13.9477V35.4997H14.1733V13.9477H13.1733Z" fill="none" fill-opacity="0.0"/>
<path d="M55.6145 35.4437C55.3798 35.4437 55.2625 35.3157 55.2625 35.0597V14.8677C55.2625 14.6117 55.3798 14.4837 55.6145 14.4837H62.0785C65.3851 14.4837 67.8491 15.2517 69.4705 16.7877C71.0918 18.3237 71.9025 20.6277 71.9025 23.6997V25.6197C71.9025 28.8837 71.0918 31.3371 69.4705 32.9797C67.8705 34.6224 65.4065 35.4437 62.0785 35.4437H55.6145ZM59.1025 32.1477H61.8225C63.9771 32.1477 65.5558 31.6144 66.5585 30.5477C67.5611 29.4597 68.0625 27.8277 68.0625 25.6517V23.6677C68.0625 21.6837 67.5611 20.2117 66.5585 19.2517C65.5558 18.2704 63.9771 17.7797 61.8225 17.7797H59.1025V32.1477ZM76.0757 35.4437C75.8411 35.4437 75.7237 35.3157 75.7237 35.0597V23.6357C75.7237 22.9957 75.7024 22.3877 75.6597 21.8117C75.6384 21.2357 75.5851 20.6704 75.4997 20.1157C75.4571 19.8384 75.5851 19.6997 75.8837 19.6997H78.5717C78.6997 19.6997 78.7957 19.7211 78.8597 19.7637C78.9237 19.8064 78.9664 19.8917 78.9877 20.0197C79.0731 20.4037 79.1371 20.8411 79.1797 21.3317C79.2224 21.8224 79.2437 22.2597 79.2437 22.6437L79.4997 24.4997V35.0597C79.4997 35.3157 79.3717 35.4437 79.1157 35.4437H76.0757ZM79.1477 25.9077L78.9557 22.6437C79.4037 22.0037 79.9051 21.4384 80.4597 20.9477C81.0357 20.4357 81.6117 20.0411 82.1877 19.7637C82.7851 19.4651 83.3291 19.3157 83.8197 19.3157C84.1824 19.3157 84.4704 19.3477 84.6837 19.4117C84.7904 19.4544 84.8651 19.5077 84.9077 19.5717C84.9504 19.6357 84.9717 19.7211 84.9717 19.8277C85.0144 20.3397 85.0251 20.8944 85.0037 21.4917C85.0037 22.0677 84.9717 22.6117 84.9077 23.1237C84.8864 23.2517 84.8331 23.3477 84.7477 23.4117C84.6837 23.4544 84.5771 23.4651 84.4277 23.4437C84.2997 23.4224 84.1397 23.4011 83.9477 23.3797C83.7557 23.3584 83.5531 23.3477 83.3397 23.3477C82.8704 23.3477 82.3797 23.4544 81.8677 23.6677C81.3771 23.8597 80.8971 24.1477 80.4277 24.5317C79.9797 24.9157 79.5531 25.3744 79.1477 25.9077ZM87.7632 35.4437C87.5286 35.4437 87.4112 35.3157 87.4112 35.0597V20.0837C87.4112 19.8277 87.5286 19.6997 87.7632 19.6997H90.8032C91.0592 19.6997 91.1872 19.8277 91.1872 20.0837V35.0597C91.1872 35.3157 91.0592 35.4437 90.8032 35.4437H87.7632ZM89.2992 17.4277C88.5739 17.4277 88.0192 17.2357 87.6352 16.8517C87.2726 16.4677 87.0912 15.9771 87.0912 15.3797V14.8997C87.0912 14.2811 87.2726 13.7904 87.6352 13.4277C88.0192 13.0437 88.5739 12.8517 89.2992 12.8517C90.0246 12.8517 90.5686 13.0437 90.9312 13.4277C91.2939 13.7904 91.4752 14.2811 91.4752 14.8997V15.3797C91.4752 15.9771 91.2939 16.4677 90.9312 16.8517C90.5686 17.2357 90.0246 17.4277 89.2992 17.4277ZM99.415 35.4437C99.2016 35.4437 99.063 35.3477 98.999 35.1557L93.879 20.1157C93.7936 19.8384 93.8896 19.6997 94.167 19.6997H97.431C97.6656 19.6997 97.815 19.8064 97.879 20.0197L100.215 27.9557C100.428 28.6597 100.631 29.3744 100.823 30.0997C101.015 30.8251 101.196 31.5504 101.367 32.2757H101.431C101.623 31.5291 101.815 30.8037 102.007 30.0997C102.22 29.3957 102.434 28.6811 102.647 27.9557L104.983 20.0197C105.047 19.8064 105.196 19.6997 105.431 19.6997H108.663C108.94 19.6997 109.047 19.8384 108.983 20.1157L103.831 35.1557C103.746 35.3477 103.596 35.4437 103.383 35.4437H99.415ZM117.845 35.8277C115.541 35.8277 113.813 35.3264 112.661 34.3237C111.509 33.2997 110.933 31.7851 110.933 29.7797V25.8117C110.933 23.6784 111.498 22.0677 112.629 20.9797C113.781 19.8704 115.509 19.3157 117.813 19.3157C120.074 19.3157 121.781 19.8491 122.933 20.9157C124.085 21.9824 124.661 23.5397 124.661 25.5877V28.0837C124.661 28.3397 124.533 28.4677 124.277 28.4677H114.677V29.4277C114.677 30.6011 114.922 31.4651 115.413 32.0197C115.925 32.5531 116.746 32.8197 117.877 32.8197C118.751 32.8197 119.423 32.6811 119.893 32.4037C120.383 32.1264 120.629 31.7104 120.629 31.1557C120.629 30.8997 120.757 30.7717 121.013 30.7717H123.957C124.191 30.7717 124.319 30.8891 124.341 31.1237C124.405 32.6597 123.871 33.8331 122.741 34.6437C121.631 35.4331 119.999 35.8277 117.845 35.8277ZM114.677 25.9077H120.949V25.7477C120.949 24.5744 120.693 23.7104 120.181 23.1557C119.669 22.6011 118.89 22.3237 117.845 22.3237C116.757 22.3237 115.957 22.6117 115.445 23.1877C114.933 23.7424 114.677 24.6064 114.677 25.7797V25.9077Z" fill="#603F51"/>
<rect width="40" height="40" transform="matrix(0.929132 0.369749 -0.348579 0.937279 142.956 5)" fill="white"/>
<path d="M144.472 40.0384C144.199 39.9304 144.118 39.7263 144.23 39.4262L152.995 15.7573C153.107 15.4572 153.299 15.3612 153.571 15.4693L157.215 16.9135C157.488 17.0216 157.569 17.2256 157.458 17.5257L149.998 37.6687L159.778 41.5444C160.075 41.6623 160.168 41.8713 160.057 42.1714L158.918 45.2472C158.807 45.5473 158.603 45.6384 158.305 45.5205L144.472 40.0384Z" fill="#FF0000"/>
</svg>
