<svg width="205" height="80" viewBox="0 0 205 80" fill="none" xmlns="http://www.w3.org/2000/svg">
<rect y="14.4437" width="39.8945" height="51.5848" rx="4" fill="#603F51" fill-opacity="0.81"/>
<path d="M8.4413 54.4437C8.0893 54.4437 7.9133 54.2517 7.9133 53.8677V23.5797C7.9133 23.1957 8.0893 23.0037 8.4413 23.0037H18.1373C23.0973 23.0037 26.7933 24.1557 29.2253 26.4597C31.6573 28.7637 32.8733 32.2197 32.8733 36.8277V39.7077C32.8733 44.6037 31.6573 48.2837 29.2253 50.7477C26.8253 53.2117 23.1293 54.4437 18.1373 54.4437H8.4413ZM13.6733 49.4997H17.7533C20.9853 49.4997 23.3533 48.6997 24.8573 47.0997C26.3613 45.4677 27.1133 43.0197 27.1133 39.7557V36.7797C27.1133 33.8037 26.3613 31.5957 24.8573 30.1557C23.3533 28.6837 20.9853 27.9477 17.7533 27.9477H13.6733V49.4997Z" fill="#D9D9D9"/>
<path d="M29.2253 26.4597L28.8814 26.8227L28.8814 26.8227L29.2253 26.4597ZM29.2253 50.7477L28.8694 50.3965L28.8671 50.3989L29.2253 50.7477ZM13.6733 49.4997H13.1733V49.9997H13.6733V49.4997ZM24.8573 47.0997L25.2216 47.4422L25.225 47.4386L24.8573 47.0997ZM24.8573 30.1557L24.5075 30.5131L24.5115 30.5169L24.8573 30.1557ZM13.6733 27.9477V27.4477H13.1733V27.9477H13.6733ZM8.4413 53.9437C8.39743 53.9437 8.38052 53.9376 8.38117 53.9378C8.38465 53.9391 8.39934 53.946 8.41387 53.9619C8.42755 53.9768 8.42809 53.9854 8.42447 53.9736C8.42029 53.9599 8.4133 53.9271 8.4133 53.8677H7.4133C7.4133 54.1265 7.47169 54.4139 7.67672 54.6376C7.8893 54.8695 8.17649 54.9437 8.4413 54.9437V53.9437ZM8.4133 53.8677V23.5797H7.4133V53.8677H8.4133ZM8.4133 23.5797C8.4133 23.5203 8.42029 23.4875 8.42447 23.4738C8.42809 23.462 8.42755 23.4707 8.41388 23.4856C8.39934 23.5014 8.38465 23.5084 8.38117 23.5096C8.38052 23.5099 8.39743 23.5037 8.4413 23.5037V22.5037C8.17649 22.5037 7.8893 22.578 7.67672 22.8099C7.47169 23.0335 7.4133 23.3209 7.4133 23.5797H8.4133ZM8.4413 23.5037H18.1373V22.5037H8.4413V23.5037ZM18.1373 23.5037C23.0299 23.5037 26.5785 24.641 28.8814 26.8227L29.5692 26.0967C27.0081 23.6704 23.1647 22.5037 18.1373 22.5037V23.5037ZM28.8814 26.8227C31.1808 29.0011 32.3733 32.3039 32.3733 36.8277H33.3733C33.3733 32.1355 32.1338 28.5264 29.5692 26.0967L28.8814 26.8227ZM32.3733 36.8277V39.7077H33.3733V36.8277H32.3733ZM32.3733 39.7077C32.3733 44.5272 31.1766 48.059 28.8694 50.3965L29.5812 51.099C32.138 48.5085 33.3733 44.6803 33.3733 39.7077H32.3733ZM28.8671 50.3989C26.5968 52.7298 23.0556 53.9437 18.1373 53.9437V54.9437C23.203 54.9437 27.0538 53.6937 29.5835 51.0966L28.8671 50.3989ZM18.1373 53.9437H8.4413V54.9437H18.1373V53.9437ZM13.6733 49.9997H17.7533V48.9997H13.6733V49.9997ZM17.7533 49.9997C21.0578 49.9997 23.5861 49.1821 25.2216 47.4422L24.493 46.7573C23.1205 48.2173 20.9128 48.9997 17.7533 48.9997V49.9997ZM25.225 47.4386C26.8466 45.6789 27.6133 43.0871 27.6133 39.7557H26.6133C26.6133 42.9523 25.876 45.2565 24.4896 46.7609L25.225 47.4386ZM27.6133 39.7557V36.7797H26.6133V39.7557H27.6133ZM27.6133 36.7797C27.6133 33.7267 26.8415 31.3633 25.2031 29.7946L24.5115 30.5169C25.8811 31.8282 26.6133 33.8808 26.6133 36.7797H27.6133ZM25.207 29.7984C23.5701 28.1963 21.0477 27.4477 17.7533 27.4477V28.4477C20.9229 28.4477 23.1365 29.1712 24.5076 30.5131L25.207 29.7984ZM17.7533 27.4477H13.6733V28.4477H17.7533V27.4477ZM13.1733 27.9477V49.4997H14.1733V27.9477H13.1733Z" fill="#D9D9D9"/>
<path d="M55.6145 49.4437C55.3798 49.4437 55.2625 49.3157 55.2625 49.0597V28.8677C55.2625 28.6117 55.3798 28.4837 55.6145 28.4837H62.0785C65.3851 28.4837 67.8491 29.2517 69.4705 30.7877C71.0918 32.3237 71.9025 34.6277 71.9025 37.6997V39.6197C71.9025 42.8837 71.0918 45.3371 69.4705 46.9797C67.8705 48.6224 65.4065 49.4437 62.0785 49.4437H55.6145ZM59.1025 46.1477H61.8225C63.9771 46.1477 65.5558 45.6144 66.5585 44.5477C67.5611 43.4597 68.0625 41.8277 68.0625 39.6517V37.6677C68.0625 35.6837 67.5611 34.2117 66.5585 33.2517C65.5558 32.2704 63.9771 31.7797 61.8225 31.7797H59.1025V46.1477ZM76.0757 49.4437C75.8411 49.4437 75.7237 49.3157 75.7237 49.0597V37.6357C75.7237 36.9957 75.7024 36.3877 75.6597 35.8117C75.6384 35.2357 75.5851 34.6704 75.4997 34.1157C75.4571 33.8384 75.5851 33.6997 75.8837 33.6997H78.5717C78.6997 33.6997 78.7957 33.7211 78.8597 33.7637C78.9237 33.8064 78.9664 33.8917 78.9877 34.0197C79.0731 34.4037 79.1371 34.8411 79.1797 35.3317C79.2224 35.8224 79.2437 36.2597 79.2437 36.6437L79.4997 38.4997V49.0597C79.4997 49.3157 79.3717 49.4437 79.1157 49.4437H76.0757ZM79.1477 39.9077L78.9557 36.6437C79.4037 36.0037 79.9051 35.4384 80.4597 34.9477C81.0357 34.4357 81.6117 34.0411 82.1877 33.7637C82.7851 33.4651 83.3291 33.3157 83.8197 33.3157C84.1824 33.3157 84.4704 33.3477 84.6837 33.4117C84.7904 33.4544 84.8651 33.5077 84.9077 33.5717C84.9504 33.6357 84.9717 33.7211 84.9717 33.8277C85.0144 34.3397 85.0251 34.8944 85.0037 35.4917C85.0037 36.0677 84.9717 36.6117 84.9077 37.1237C84.8864 37.2517 84.8331 37.3477 84.7477 37.4117C84.6837 37.4544 84.5771 37.4651 84.4277 37.4437C84.2997 37.4224 84.1397 37.4011 83.9477 37.3797C83.7557 37.3584 83.5531 37.3477 83.3397 37.3477C82.8704 37.3477 82.3797 37.4544 81.8677 37.6677C81.3771 37.8597 80.8971 38.1477 80.4277 38.5317C79.9797 38.9157 79.5531 39.3744 79.1477 39.9077ZM87.7632 49.4437C87.5286 49.4437 87.4112 49.3157 87.4112 49.0597V34.0837C87.4112 33.8277 87.5286 33.6997 87.7632 33.6997H90.8032C91.0592 33.6997 91.1872 33.8277 91.1872 34.0837V49.0597C91.1872 49.3157 91.0592 49.4437 90.8032 49.4437H87.7632ZM89.2992 31.4277C88.5739 31.4277 88.0192 31.2357 87.6352 30.8517C87.2726 30.4677 87.0912 29.9771 87.0912 29.3797V28.8997C87.0912 28.2811 87.2726 27.7904 87.6352 27.4277C88.0192 27.0437 88.5739 26.8517 89.2992 26.8517C90.0246 26.8517 90.5686 27.0437 90.9312 27.4277C91.2939 27.7904 91.4752 28.2811 91.4752 28.8997V29.3797C91.4752 29.9771 91.2939 30.4677 90.9312 30.8517C90.5686 31.2357 90.0246 31.4277 89.2992 31.4277ZM99.415 49.4437C99.2016 49.4437 99.063 49.3477 98.999 49.1557L93.879 34.1157C93.7936 33.8384 93.8896 33.6997 94.167 33.6997H97.431C97.6656 33.6997 97.815 33.8064 97.879 34.0197L100.215 41.9557C100.428 42.6597 100.631 43.3744 100.823 44.0997C101.015 44.8251 101.196 45.5504 101.367 46.2757H101.431C101.623 45.5291 101.815 44.8037 102.007 44.0997C102.22 43.3957 102.434 42.6811 102.647 41.9557L104.983 34.0197C105.047 33.8064 105.196 33.6997 105.431 33.6997H108.663C108.94 33.6997 109.047 33.8384 108.983 34.1157L103.831 49.1557C103.746 49.3477 103.596 49.4437 103.383 49.4437H99.415ZM117.845 49.8277C115.541 49.8277 113.813 49.3264 112.661 48.3237C111.509 47.2997 110.933 45.7851 110.933 43.7797V39.8117C110.933 37.6784 111.498 36.0677 112.629 34.9797C113.781 33.8704 115.509 33.3157 117.813 33.3157C120.074 33.3157 121.781 33.8491 122.933 34.9157C124.085 35.9824 124.661 37.5397 124.661 39.5877V42.0837C124.661 42.3397 124.533 42.4677 124.277 42.4677H114.677V43.4277C114.677 44.6011 114.922 45.4651 115.413 46.0197C115.925 46.5531 116.746 46.8197 117.877 46.8197C118.751 46.8197 119.423 46.6811 119.893 46.4037C120.383 46.1264 120.629 45.7104 120.629 45.1557C120.629 44.8997 120.757 44.7717 121.013 44.7717H123.957C124.191 44.7717 124.319 44.8891 124.341 45.1237C124.405 46.6597 123.871 47.8331 122.741 48.6437C121.631 49.4331 119.999 49.8277 117.845 49.8277ZM114.677 39.9077H120.949V39.7477C120.949 38.5744 120.693 37.7104 120.181 37.1557C119.669 36.6011 118.89 36.3237 117.845 36.3237C116.757 36.3237 115.957 36.6117 115.445 37.1877C114.933 37.7424 114.677 38.6064 114.677 39.7797V39.9077Z" fill="#603F51"/>
<rect width="60.1113" height="61.64" transform="matrix(0.929132 0.369749 -0.348579 0.937279 149.149 0)" fill="white"/>
<path d="M150.231 54.2444C149.794 54.0715 149.665 53.745 149.843 53.2649L163.868 15.3946C164.046 14.9145 164.353 14.7609 164.79 14.9338L170.62 17.2445C171.057 17.4174 171.186 17.7439 171.008 18.2241L159.072 50.4528L174.72 56.654C175.196 56.8426 175.345 57.177 175.167 57.6571L173.345 62.5784C173.167 63.0586 172.84 63.2043 172.364 63.0157L150.231 54.2444Z" fill="#FF0000"/>
</svg>
